<svg id="Layer_2" data-name="Layer 2" xmlns="http://www.w3.org/2000/svg" viewBox="0 0 90.25 90.25"><defs><style>.cls-1{stroke:#000;stroke-width:0.25px;}.cls-1,.cls-2{stroke-miterlimit:10;}.cls-2{stroke:#fff;}</style></defs><polygon class="cls-1" points="90.12 0.13 90.12 89.94 0.3 0.13 90.12 0.13"/><path class="cls-2" d="M142.49,103.73a14.57,14.57,0,0,0-21.82,18,.67.67,0,0,0,1.14.06l1.6-1.71a5.78,5.78,0,0,1-1.06-.79,3.16,3.16,0,0,1-.36-4.13,3,3,0,0,0,.36-1.67c-.22-.4-.33-.5-.23-.61s.52.09.63.19c.64.6.48,1.84.39,2.36a2.68,2.68,0,0,0,.5,2.47,2.89,2.89,0,0,0,1.16.68,3.72,3.72,0,0,1,2.87-.93c-2-2.82-2.48-5.91-.29-8.26a6.84,6.84,0,0,1,4.27-2,5.54,5.54,0,0,1,1.19-1.7,4.17,4.17,0,0,1,1.51-1.19.47.47,0,0,1,.62,0l.1.1a6.83,6.83,0,0,1,1.27,3.78,9.82,9.82,0,0,1,2.44,1.67,9.44,9.44,0,0,1,1.84,2.32,7.24,7.24,0,0,1,4,1.1l.11.1a.61.61,0,0,1,.12.72l-1.29,1.39a5,5,0,0,1-1.61,1.3,6.57,6.57,0,0,1-1.71,4.4c-2.19,2.36-5.31,2-8.27.29a4.48,4.48,0,0,1-1.22,3.46l-2.59,2.78a.79.79,0,0,0,.25,1.23,14.68,14.68,0,0,0,14.11-25.42Z" transform="translate(-69.06 -85.09)"/></svg>