<svg id="Layer_2" data-name="Layer 2" xmlns="http://www.w3.org/2000/svg" viewBox="0 0 90.25 90.25"><defs><style>.cls-1{stroke:#000;stroke-width:0.25px;}.cls-1,.cls-2{stroke-miterlimit:10;}.cls-2{stroke:#fff;stroke-width:2px;}</style></defs><polygon class="cls-1" points="90.12 0.13 90.12 89.94 0.3 0.13 90.12 0.13"/><path class="cls-2" d="M145.62,99.48A19.83,19.83,0,0,0,115.93,124a.92.92,0,0,0,1.55.09l2.17-2.33a8.31,8.31,0,0,1-1.45-1.08,4.29,4.29,0,0,1-.47-5.61,4.2,4.2,0,0,0,.48-2.27c-.3-.55-.45-.69-.31-.83.27-.3.71.11.85.25.88.81.65,2.51.54,3.22a3.61,3.61,0,0,0,.68,3.35,3.9,3.9,0,0,0,1.58.93,5.05,5.05,0,0,1,3.9-1.26c-2.67-3.85-3.38-8-.4-11.25a9.45,9.45,0,0,1,5.82-2.74,7.44,7.44,0,0,1,1.61-2.3,5.85,5.85,0,0,1,2.06-1.63.63.63,0,0,1,.84,0l.14.13a9.42,9.42,0,0,1,1.73,5.15,13.55,13.55,0,0,1,5.82,5.43,9.85,9.85,0,0,1,5.41,1.5l.14.13a.85.85,0,0,1,.18,1L147,115.76a6.55,6.55,0,0,1-2.19,1.77,9,9,0,0,1-2.32,6c-3,3.21-7.23,2.79-11.25.4a6.16,6.16,0,0,1-1.67,4.7l-3.53,3.78a1.1,1.1,0,0,0,.34,1.68,20,20,0,0,0,19.21-34.6Z" transform="translate(-69.06 -85.09)"/></svg>