<svg id="Layer_2" data-name="Layer 2" xmlns="http://www.w3.org/2000/svg" viewBox="0 0 90.25 90.25"><defs><style>.cls-1{stroke:#000;stroke-width:0.25px;}.cls-1,.cls-2{stroke-miterlimit:10;}.cls-2{fill:#fff;stroke:#fff;stroke-width:2px;}</style></defs><polygon class="cls-1" points="0.13 0.13 0.13 89.94 89.94 0.13 0.13 0.13"/><path class="cls-2" d="M99.92,93.47,78,115.36a3,3,0,0,0,0,4.18L92.51,134a2.94,2.94,0,0,0,4.17,0l7.85-7.85,1.75,2.17a.78.78,0,0,0,.58.29l6.78-6.77a.87.87,0,0,0-.3-.58l-2.17-1.75,7.4-7.4a3,3,0,0,0,0-4.18L104.1,93.48A3,3,0,0,0,99.92,93.47Zm7,33.17-1.3-1.61,4.38-4.38,1.61,1.3Zm10.48-17.58a1.36,1.36,0,0,1,0,1.93L95.56,132.87a1.36,1.36,0,0,1-1.93,0l-.6-.6,23.81-23.81Zm-1.73-1.73L91.89,131.15,79.16,118.42a1.36,1.36,0,0,1,0-1.93L101.05,94.6a1.36,1.36,0,0,1,1.93,0Z" transform="translate(-69.23 -85.09)"/></svg>