<svg id="Layer_1" data-name="Layer 1" xmlns="http://www.w3.org/2000/svg" viewBox="0 0 157.39 177.35"><defs><style>.cls-1{fill:red;stroke:#000;stroke-miterlimit:10;}</style></defs><path class="cls-1" d="M213.1,92.78,148.56,55.53a13.64,13.64,0,0,0-13.65,0L70.37,92.78a13.65,13.65,0,0,0-6.83,11.83v74.53A13.66,13.66,0,0,0,70.37,191l64.54,37.25a13.64,13.64,0,0,0,13.65,0L213.1,191a13.68,13.68,0,0,0,6.82-11.83V104.61A13.66,13.66,0,0,0,213.1,92.78Zm-6.32,78.75a13.64,13.64,0,0,1-6.85,11.83L148.56,213a13.64,13.64,0,0,1-13.65,0L83.53,183.36a13.62,13.62,0,0,1-6.83-11.83V112.21a13.66,13.66,0,0,1,6.83-11.83l51.38-29.66a13.64,13.64,0,0,1,13.65,0l51.37,29.66a13.68,13.68,0,0,1,6.85,11.83Z" transform="translate(-63.04 -53.2)"/><polygon class="cls-1" points="129.92 53.99 129.92 81.15 107.69 81.15 107.69 74.36 118.8 74.36 118.8 60.78 107.69 60.78 107.69 53.99 129.92 53.99"/><rect class="cls-1" x="117.48" y="84.3" width="12.45" height="39.06"/><rect class="cls-1" x="89.91" y="53.99" width="13.58" height="69.36"/><rect class="cls-1" x="47.09" y="53.99" width="13.58" height="69.36"/><rect class="cls-1" x="27.46" y="101.9" width="13.58" height="21.45"/></svg>