<svg width="469" height="640" viewBox="0 0 469 640" fill="none" xmlns="http://www.w3.org/2000/svg">
<path d="M302 302H170C162.3 302 156 295.7 156 288V16C156 8.3 162.3 2 170 2H302C309.7 2 316 8.3 316 16V288C316 295.7 309.7 302 302 302Z" fill="#848484"/>
<path opacity="0.28" d="M302 2H293.6C301.3 2 307.6 8.3 307.6 16V288C307.6 295.7 301.3 302 293.6 302H302.1C309.8 302 316.1 295.7 316.1 288V16C316 8.2 309.7 2 302 2Z" fill="#848484"/>
<path opacity="0.48" d="M164.3 288V16C164.3 8.3 170.6 2 178.3 2H170C162.3 2 156 8.3 156 16V288C156 295.7 162.3 302 170 302H178.3C170.6 302 164.3 295.7 164.3 288Z" fill="#848484"/>
<path d="M302 302H170C162.3 302 156 295.7 156 288V16C156 8.3 162.3 2 170 2H302C309.7 2 316 8.3 316 16V288C316 295.7 309.7 302 302 302Z" stroke="#444E59" stroke-width="4" stroke-miterlimit="10" stroke-linecap="round" stroke-linejoin="round"/>
<path d="M316.019 263.488L316.019 39.4883L156.019 39.4883L156.019 263.488H316.019Z" fill="#E9FBFF"/>
<path d="M315.2 111.7H302.7C295.9 111.7 290.4 106.2 290.4 99.3996V68.8996C290.4 62.0996 295.9 56.5996 302.7 56.5996H315.2V111.7Z" fill="#C9C9C9"/>
<path d="M165.2 235.3H156V138H165.2C172.1 138 177.7 143.6 177.7 150.5V222.8C177.6 229.7 172.1 235.3 165.2 235.3Z" fill="#C9C9C9"/>
<path d="M316.019 263.488L316.019 39.4883L156.019 39.4883L156.019 263.488H316.019Z" stroke="#444E59" stroke-width="4" stroke-miterlimit="10" stroke-linecap="round" stroke-linejoin="round"/>
<path d="M258 22H265" stroke="#444E59" stroke-width="5" stroke-miterlimit="10" stroke-linecap="round" stroke-linejoin="round"/>
<path d="M207 22H247" stroke="#444E59" stroke-width="5" stroke-miterlimit="10" stroke-linecap="round" stroke-linejoin="round"/>
<path opacity="0.29" d="M236 291.4C242.075 291.4 247 286.476 247 280.4C247 274.325 242.075 269.4 236 269.4C229.925 269.4 225 274.325 225 280.4C225 286.476 229.925 291.4 236 291.4Z" fill="#848484"/>
<path d="M236 288.8C240.639 288.8 244.4 285.039 244.4 280.4C244.4 275.761 240.639 272 236 272C231.361 272 227.6 275.761 227.6 280.4C227.6 285.039 231.361 288.8 236 288.8Z" fill="#444E59"/>
<g opacity="0.3">
<g opacity="0.3">
<g opacity="0.3">
<path opacity="0.3" d="M199.5 236.699H183.5C179.1 236.699 175.5 233.099 175.5 228.699V212.699C175.5 208.299 179.1 204.699 183.5 204.699H199.5C203.9 204.699 207.5 208.299 207.5 212.699V228.699C207.5 233.099 203.9 236.699 199.5 236.699Z" stroke="#444E59" stroke-width="2" stroke-linecap="round" stroke-linejoin="round" stroke-dasharray="4.08 4.08"/>
</g>
<g opacity="0.3">
<path opacity="0.3" d="M288 236.699H272C267.6 236.699 264 233.099 264 228.699V212.699C264 208.299 267.6 204.699 272 204.699H288C292.4 204.699 296 208.299 296 212.699V228.699C296 233.099 292.4 236.699 288 236.699Z" stroke="#444E59" stroke-width="2" stroke-linecap="round" stroke-linejoin="round" stroke-dasharray="4.08 4.08"/>
</g>
<g opacity="0.3">
<path opacity="0.3" d="M244 236.699H228C223.6 236.699 220 233.099 220 228.699V212.699C220 208.299 223.6 204.699 228 204.699H244C248.4 204.699 252 208.299 252 212.699V228.699C252 233.099 248.4 236.699 244 236.699Z" stroke="#444E59" stroke-width="2" stroke-linecap="round" stroke-linejoin="round" stroke-dasharray="4.08 4.08"/>
</g>
</g>
<g opacity="0.3">
<g opacity="0.3">
<path opacity="0.3" d="M199.5 188.699H183.5C179.1 188.699 175.5 185.099 175.5 180.699V164.699C175.5 160.299 179.1 156.699 183.5 156.699H199.5C203.9 156.699 207.5 160.299 207.5 164.699V180.699C207.5 185.099 203.9 188.699 199.5 188.699Z" stroke="#444E59" stroke-width="2" stroke-linecap="round" stroke-linejoin="round" stroke-dasharray="4.08 4.08"/>
</g>
<g opacity="0.3">
<path opacity="0.3" d="M288 188.699H272C267.6 188.699 264 185.099 264 180.699V164.699C264 160.299 267.6 156.699 272 156.699H288C292.4 156.699 296 160.299 296 164.699V180.699C296 185.099 292.4 188.699 288 188.699Z" stroke="#444E59" stroke-width="2" stroke-linecap="round" stroke-linejoin="round" stroke-dasharray="4.08 4.08"/>
</g>
<g opacity="0.3">
<path opacity="0.3" d="M244 188.699H228C223.6 188.699 220 185.099 220 180.699V164.699C220 160.299 223.6 156.699 228 156.699H244C248.4 156.699 252 160.299 252 164.699V180.699C252 185.099 248.4 188.699 244 188.699Z" stroke="#444E59" stroke-width="2" stroke-linecap="round" stroke-linejoin="round" stroke-dasharray="4.08 4.08"/>
</g>
</g>
<g opacity="0.3">
<g opacity="0.3">
<path opacity="0.3" d="M199.5 140.699H183.5C179.1 140.699 175.5 137.099 175.5 132.699V116.699C175.5 112.299 179.1 108.699 183.5 108.699H199.5C203.9 108.699 207.5 112.299 207.5 116.699V132.699C207.5 137.099 203.9 140.699 199.5 140.699Z" stroke="#444E59" stroke-width="2" stroke-linecap="round" stroke-linejoin="round" stroke-dasharray="4.08 4.08"/>
</g>
<g opacity="0.3">
<path opacity="0.3" d="M288 140.699H272C267.6 140.699 264 137.099 264 132.699V116.699C264 112.299 267.6 108.699 272 108.699H288C292.4 108.699 296 112.299 296 116.699V132.699C296 137.099 292.4 140.699 288 140.699Z" stroke="#444E59" stroke-width="2" stroke-linecap="round" stroke-linejoin="round" stroke-dasharray="4.08 4.08"/>
</g>
<g opacity="0.3">
<path opacity="0.3" d="M244 140.699H228C223.6 140.699 220 137.099 220 132.699V116.699C220 112.299 223.6 108.699 228 108.699H244C248.4 108.699 252 112.299 252 116.699V132.699C252 137.099 248.4 140.699 244 140.699Z" stroke="#444E59" stroke-width="2" stroke-linecap="round" stroke-linejoin="round" stroke-dasharray="4.08 4.08"/>
</g>
</g>
<g opacity="0.3">
<g opacity="0.3">
<path opacity="0.3" d="M199.5 92.6992H183.5C179.1 92.6992 175.5 89.0992 175.5 84.6992V68.6992C175.5 64.2992 179.1 60.6992 183.5 60.6992H199.5C203.9 60.6992 207.5 64.2992 207.5 68.6992V84.6992C207.5 89.0992 203.9 92.6992 199.5 92.6992Z" stroke="#444E59" stroke-width="2" stroke-linecap="round" stroke-linejoin="round" stroke-dasharray="4.08 4.08"/>
</g>
<g opacity="0.3">
<path opacity="0.3" d="M288 92.6992H272C267.6 92.6992 264 89.0992 264 84.6992V68.6992C264 64.2992 267.6 60.6992 272 60.6992H288C292.4 60.6992 296 64.2992 296 68.6992V84.6992C296 89.0992 292.4 92.6992 288 92.6992Z" stroke="#444E59" stroke-width="2" stroke-linecap="round" stroke-linejoin="round" stroke-dasharray="4.08 4.08"/>
</g>
<g opacity="0.3">
<path opacity="0.3" d="M244 92.6992H228C223.6 92.6992 220 89.0992 220 84.6992V68.6992C220 64.2992 223.6 60.6992 228 60.6992H244C248.4 60.6992 252 64.2992 252 68.6992V84.6992C252 89.0992 248.4 92.6992 244 92.6992Z" stroke="#444E59" stroke-width="2" stroke-linecap="round" stroke-linejoin="round" stroke-dasharray="4.08 4.08"/>
</g>
</g>
</g>
<path d="M199.5 236.699H183.5C179.1 236.699 175.5 233.099 175.5 228.699V212.699C175.5 208.299 179.1 204.699 183.5 204.699H199.5C203.9 204.699 207.5 208.299 207.5 212.699V228.699C207.5 233.099 203.9 236.699 199.5 236.699Z" fill="#71A850"/>
<path opacity="0.52" d="M199.5 204.699H183.5C180.3 204.699 177.5 206.599 176.3 209.299L207.5 214.899V212.699C207.5 208.299 203.9 204.699 199.5 204.699Z" fill="#5F8C42"/>
<path d="M199.5 236.699H183.5C179.1 236.699 175.5 233.099 175.5 228.699V212.699C175.5 208.299 179.1 204.699 183.5 204.699H199.5C203.9 204.699 207.5 208.299 207.5 212.699V228.699C207.5 233.099 203.9 236.699 199.5 236.699Z" stroke="#444E59" stroke-width="4" stroke-miterlimit="10" stroke-linecap="round" stroke-linejoin="round"/>
<path d="M244 236.699H228C223.6 236.699 220 233.099 220 228.699V212.699C220 208.299 223.6 204.699 228 204.699H244C248.4 204.699 252 208.299 252 212.699V228.699C252 233.099 248.4 236.699 244 236.699Z" fill="#F09F54"/>
<path opacity="0.52" d="M244 204.699H228C224.8 204.699 222 206.599 220.8 209.299L252 214.899V212.699C252 208.299 248.4 204.699 244 204.699Z" fill="#D38444"/>
<path d="M244 236.699H228C223.6 236.699 220 233.099 220 228.699V212.699C220 208.299 223.6 204.699 228 204.699H244C248.4 204.699 252 208.299 252 212.699V228.699C252 233.099 248.4 236.699 244 236.699Z" stroke="#444E59" stroke-width="4" stroke-miterlimit="10" stroke-linecap="round" stroke-linejoin="round"/>
<path d="M288 188.699H272C267.6 188.699 264 185.099 264 180.699V164.699C264 160.299 267.6 156.699 272 156.699H288C292.4 156.699 296 160.299 296 164.699V180.699C296 185.099 292.4 188.699 288 188.699Z" fill="#2FA9ED"/>
<path opacity="0.52" d="M288 156.699H272C268.8 156.699 266 158.599 264.8 161.299L296 166.899V164.699C296 160.299 292.4 156.699 288 156.699Z" fill="#288FBC"/>
<path d="M288 188.699H272C267.6 188.699 264 185.099 264 180.699V164.699C264 160.299 267.6 156.699 272 156.699H288C292.4 156.699 296 160.299 296 164.699V180.699C296 185.099 292.4 188.699 288 188.699Z" stroke="#444E59" stroke-width="4" stroke-miterlimit="10" stroke-linecap="round" stroke-linejoin="round"/>
<path d="M244 140.699H228C223.6 140.699 220 137.099 220 132.699V116.699C220 112.299 223.6 108.699 228 108.699H244C248.4 108.699 252 112.299 252 116.699V132.699C252 137.099 248.4 140.699 244 140.699Z" fill="#E7534E"/>
<path opacity="0.52" d="M244 108.699H228C224.8 108.699 222 110.599 220.8 113.299L252 118.899V116.699C252 112.299 248.4 108.699 244 108.699Z" fill="#BF4040"/>
<path d="M244 140.699H228C223.6 140.699 220 137.099 220 132.699V116.699C220 112.299 223.6 108.699 228 108.699H244C248.4 108.699 252 112.299 252 116.699V132.699C252 137.099 248.4 140.699 244 140.699Z" stroke="#444E59" stroke-width="4" stroke-miterlimit="10" stroke-linecap="round" stroke-linejoin="round"/>
<path d="M277.4 165.701L286.6 171.001C287.9 171.801 287.9 173.701 286.6 174.401L277.4 179.701C276.1 180.501 274.4 179.501 274.4 178.001V167.401C274.4 165.901 276.1 164.901 277.4 165.701Z" fill="white"/>
<path d="M240.2 214.5H231.8C230 214.5 228.6 216 228.6 217.7V223.9C228.6 225.7 230.1 227.1 231.8 227.1H232.1L231.4 229.9C231.3 230.1 231.6 230.3 231.8 230.1L236.1 227.1H240.4C242.2 227.1 243.6 225.6 243.6 223.9V217.7C243.5 215.9 242 214.5 240.2 214.5Z" fill="white"/>
<path d="M185.3 220.7L189 224.4C189.5 224.9 190.3 224.9 190.8 224.4L199.1 216.1" stroke="white" stroke-width="4" stroke-miterlimit="10" stroke-linecap="round" stroke-linejoin="round"/>
<path d="M236 132.199C240.142 132.199 243.5 128.841 243.5 124.699C243.5 120.557 240.142 117.199 236 117.199C231.858 117.199 228.5 120.557 228.5 124.699C228.5 128.841 231.858 132.199 236 132.199Z" stroke="white" stroke-width="4" stroke-miterlimit="10" stroke-linecap="round" stroke-linejoin="round"/>
<path d="M175.6 85.7004L175.4 70.7004L165.4 70.8004C164.8 68.9004 164.1 67.2004 163.1 65.5004L170.1 58.3004L159.4 47.8004L152.4 55.0004C150.7 54.1004 148.9 53.4004 147 52.9004L146.9 42.9004L131.9 43.1004L132 53.1004C130.1 53.7004 128.4 54.4004 126.7 55.4004L119.5 48.4004L109 59.1004L116.2 66.1004C115.3 67.8004 114.6 69.6004 114.1 71.5004L104.1 71.6004L104.3 86.6004L114.3 86.5004C114.9 88.4004 115.6 90.1004 116.6 91.8004L109.6 99.0004L120.3 109.5L127.3 102.3C129 103.2 130.8 103.9 132.7 104.4L132.8 114.4L147.8 114.2L147.7 104.2C149.6 103.6 151.3 102.9 153 101.9L160.2 108.9L170.7 98.2004L163.5 91.2004C164.4 89.5004 165.1 87.7004 165.6 85.8004L175.6 85.7004ZM140.1 90.3004C133.6 90.4004 128.4 85.2004 128.3 78.7004C128.2 72.2004 133.4 67.0004 139.9 66.9004C146.4 66.8004 151.6 72.0004 151.7 78.5004C151.7 85.0004 146.5 90.2004 140.1 90.3004Z" fill="white"/>
<path d="M175.6 85.7004L175.4 70.7004L165.4 70.8004C164.8 68.9004 164.1 67.2004 163.1 65.5004L170.1 58.3004L159.4 47.8004L152.4 55.0004C150.7 54.1004 148.9 53.4004 147 52.9004L146.9 42.9004L131.9 43.1004L132 53.1004C130.1 53.7004 128.4 54.4004 126.7 55.4004L119.5 48.4004L109 59.1004L116.2 66.1004C115.3 67.8004 114.6 69.6004 114.1 71.5004L104.1 71.6004L104.3 86.6004L114.3 86.5004C114.9 88.4004 115.6 90.1004 116.6 91.8004L109.6 99.0004L120.3 109.5L127.3 102.3C129 103.2 130.8 103.9 132.7 104.4L132.8 114.4L147.8 114.2L147.7 104.2C149.6 103.6 151.3 102.9 153 101.9L160.2 108.9L170.7 98.2004L163.5 91.2004C164.4 89.5004 165.1 87.7004 165.6 85.8004L175.6 85.7004ZM140.1 90.3004C133.6 90.4004 128.4 85.2004 128.3 78.7004C128.2 72.2004 133.4 67.0004 139.9 66.9004C146.4 66.8004 151.6 72.0004 151.7 78.5004C151.7 85.0004 146.5 90.2004 140.1 90.3004Z" fill="#F09F54"/>
<path d="M175.6 85.7004L175.4 70.7004L165.4 70.8004C164.8 68.9004 164.1 67.2004 163.1 65.5004L170.1 58.3004L159.4 47.8004L152.4 55.0004C150.7 54.1004 148.9 53.4004 147 52.9004L146.9 42.9004L131.9 43.1004L132 53.1004C130.1 53.7004 128.4 54.4004 126.7 55.4004L119.5 48.4004L109 59.1004L116.2 66.1004C115.3 67.8004 114.6 69.6004 114.1 71.5004L104.1 71.6004L104.3 86.6004L114.3 86.5004C114.9 88.4004 115.6 90.1004 116.6 91.8004L109.6 99.0004L120.3 109.5L127.3 102.3C129 103.2 130.8 103.9 132.7 104.4L132.8 114.4L147.8 114.2L147.7 104.2C149.6 103.6 151.3 102.9 153 101.9L160.2 108.9L170.7 98.2004L163.5 91.2004C164.4 89.5004 165.1 87.7004 165.6 85.8004L175.6 85.7004ZM140.1 90.3004C133.6 90.4004 128.4 85.2004 128.3 78.7004C128.2 72.2004 133.4 67.0004 139.9 66.9004C146.4 66.8004 151.6 72.0004 151.7 78.5004C151.7 85.0004 146.5 90.2004 140.1 90.3004Z" fill="#F09F54"/>
<g opacity="0.29">
<path opacity="0.29" d="M171.8 70.8012C171.8 70.8012 171.8 70.9012 171.8 70.8012H175.5V70.7012L171.8 70.8012Z" fill="#F09F54"/>
<path opacity="0.29" d="M158.8 55.1004L162.7 51.1004L159.5 47.9004L154.3 53.2004C155.9 53.7004 157.4 54.3004 158.8 55.1004Z" fill="#F09F54"/>
<path opacity="0.29" d="M146.1 66.9004C145 66.9004 144 67.1004 143.1 67.3004C148 68.7004 151.6 73.1004 151.6 78.4004C151.7 83.8004 148 88.4004 143.1 89.8004C144.1 90.1004 145.3 90.3004 146.4 90.2004C152.9 90.1004 158 84.8004 158 78.4004C158 72.0004 152.6 66.9004 146.1 66.9004Z" fill="#F09F54"/>
<path opacity="0.29" d="M131.2 53.4008L133.2 55.3008C134.9 54.4008 136.6 53.6008 138.5 53.0008L138.4 43.0008L147 42.9008V42.8008L132 43.0008L132.1 53.0008C131.9 53.2008 131.5 53.3008 131.2 53.4008Z" fill="#F09F54"/>
<path opacity="0.29" d="M139 104.301C137.1 103.801 135.3 103.101 133.6 102.201L131.8 104.101C132.1 104.201 132.4 104.301 132.7 104.401L132.8 114.401L139.1 114.301L139 104.301Z" fill="#F09F54"/>
<path opacity="0.29" d="M110.6 71.5008L120.6 71.4008C121.1 69.5008 121.8 67.7008 122.7 66.0008L115.5 59.0008L122.9 51.5008L119.7 48.3008L109.2 59.0008L116.4 66.0008C115.5 67.7008 114.8 69.5008 114.3 71.4008L104.3 71.5008L104.5 86.5008L110.8 86.4008L110.6 71.5008Z" fill="#F09F54"/>
<path opacity="0.29" d="M159.3 101.9C157.9 102.7 156.5 103.3 155 103.8L160.2 108.9L163.3 105.7L159.3 101.9Z" fill="#F09F54"/>
<path opacity="0.29" d="M116 98.8008L123 91.6008C122.1 89.9008 121.3 88.2008 120.7 86.3008L114.4 86.4008C115 88.2008 115.7 90.0008 116.6 91.6008L109.6 98.8008L120.3 109.301L123.4 106.101L116 98.8008Z" fill="#F09F54"/>
</g>
<path d="M175.6 85.7004L175.4 70.7004L165.4 70.8004C164.8 68.9004 164.1 67.2004 163.1 65.5004L170.1 58.3004L159.4 47.8004L152.4 55.0004C150.7 54.1004 148.9 53.4004 147 52.9004L146.9 42.9004L131.9 43.1004L132 53.1004C130.1 53.7004 128.4 54.4004 126.7 55.4004L119.5 48.4004L109 59.1004L116.2 66.1004C115.3 67.8004 114.6 69.6004 114.1 71.5004L104.1 71.6004L104.3 86.6004L114.3 86.5004C114.9 88.4004 115.6 90.1004 116.6 91.8004L109.6 99.0004L120.3 109.5L127.3 102.3C129 103.2 130.8 103.9 132.7 104.4L132.8 114.4L147.8 114.2L147.7 104.2C149.6 103.6 151.3 102.9 153 101.9L160.2 108.9L170.7 98.2004L163.5 91.2004C164.4 89.5004 165.1 87.7004 165.6 85.8004L175.6 85.7004ZM140.1 90.3004C133.6 90.4004 128.4 85.2004 128.3 78.7004C128.2 72.2004 133.4 67.0004 139.9 66.9004C146.4 66.8004 151.6 72.0004 151.7 78.5004C151.7 85.0004 146.5 90.2004 140.1 90.3004Z" stroke="#444E59" stroke-width="4" stroke-miterlimit="10" stroke-linecap="round" stroke-linejoin="round"/>
<path d="M162.4 227.5H72.8C68.4 227.5 64.8 223.9 64.8 219.5V138.6C64.8 134.2 68.4 130.6 72.8 130.6H162.4C166.8 130.6 170.4 134.2 170.4 138.6V219.5C170.4 223.9 166.8 227.5 162.4 227.5Z" fill="white"/>
<path d="M162.4 227.5H72.8C68.4 227.5 64.8 223.9 64.8 219.5V138.6C64.8 134.2 68.4 130.6 72.8 130.6H162.4C166.8 130.6 170.4 134.2 170.4 138.6V219.5C170.4 223.9 166.8 227.5 162.4 227.5Z" fill="white"/>
<path d="M162.4 227.5H72.8C68.4 227.5 64.8 223.9 64.8 219.5V138.6C64.8 134.2 68.4 130.6 72.8 130.6H162.4C166.8 130.6 170.4 134.2 170.4 138.6V219.5C170.4 223.9 166.8 227.5 162.4 227.5Z" stroke="#444E59" stroke-width="4" stroke-miterlimit="10" stroke-linecap="round" stroke-linejoin="round"/>
<path d="M160.7 138.801H73.9V196.501H160.7V138.801Z" fill="#9483C4"/>
<path d="M160.7 138.801H73.9V196.501H160.7V138.801Z" stroke="#444E59" stroke-width="4" stroke-miterlimit="10" stroke-linecap="round" stroke-linejoin="round"/>
<path d="M73.9 205.699H128.7" stroke="#444E59" stroke-width="4" stroke-miterlimit="10" stroke-linecap="round" stroke-linejoin="round"/>
<path d="M73.9 214.9H106.3" stroke="#444E59" stroke-width="4" stroke-miterlimit="10" stroke-linecap="round" stroke-linejoin="round"/>
<path d="M82.6 186.199L101.3 167.699L118.7 185.099" stroke="#444E59" stroke-width="4" stroke-miterlimit="10" stroke-linecap="round" stroke-linejoin="round"/>
<path d="M151.3 186.199L128.7 156.699L110.6 176.899" stroke="#444E59" stroke-width="4" stroke-miterlimit="10" stroke-linecap="round" stroke-linejoin="round"/>
<path d="M151.1 214.8C153.806 214.8 156 212.606 156 209.9C156 207.194 153.806 205 151.1 205C148.394 205 146.2 207.194 146.2 209.9C146.2 212.606 148.394 214.8 151.1 214.8Z" stroke="#444E59" stroke-width="4" stroke-miterlimit="10" stroke-linecap="round" stroke-linejoin="round"/>
<path d="M106.8 162.9C110.224 162.9 113 160.124 113 156.7C113 153.276 110.224 150.5 106.8 150.5C103.376 150.5 100.6 153.276 100.6 156.7C100.6 160.124 103.376 162.9 106.8 162.9Z" fill="#F09F54"/>
<path d="M106.8 162.9C110.224 162.9 113 160.124 113 156.7C113 153.276 110.224 150.5 106.8 150.5C103.376 150.5 100.6 153.276 100.6 156.7C100.6 160.124 103.376 162.9 106.8 162.9Z" stroke="#444E59" stroke-width="4" stroke-miterlimit="10" stroke-linecap="round" stroke-linejoin="round"/>
<path d="M63.1 102.1H89.9" stroke="#444E59" stroke-width="4" stroke-miterlimit="10" stroke-linecap="round" stroke-linejoin="round"/>
<path d="M48.8 102.1H55.9" stroke="#444E59" stroke-width="4" stroke-miterlimit="10" stroke-linecap="round" stroke-linejoin="round"/>
<path d="M76.5 89.6992H89.9" stroke="#444E59" stroke-width="4" stroke-miterlimit="10" stroke-linecap="round" stroke-linejoin="round"/>
<path d="M65.7 89.6992H69.7" stroke="#444E59" stroke-width="4" stroke-miterlimit="10" stroke-linecap="round" stroke-linejoin="round"/>
<path d="M34.1 180.5H55" stroke="#444E59" stroke-width="4" stroke-miterlimit="10" stroke-linecap="round" stroke-linejoin="round"/>
<path d="M23 180.5H28.5" stroke="#444E59" stroke-width="4" stroke-miterlimit="10" stroke-linecap="round" stroke-linejoin="round"/>
<path d="M46.5 168.1H55" stroke="#444E59" stroke-width="4" stroke-miterlimit="10" stroke-linecap="round" stroke-linejoin="round"/>
<path d="M36.1 168.1H39.3" stroke="#444E59" stroke-width="4" stroke-miterlimit="10" stroke-linecap="round" stroke-linejoin="round"/>
<path d="M367.4 35.4004H387.2" stroke="#444E59" stroke-width="4" stroke-miterlimit="10" stroke-linecap="round" stroke-linejoin="round"/>
<path d="M355.2 35.4004H360.8" stroke="#444E59" stroke-width="4" stroke-miterlimit="10" stroke-linecap="round" stroke-linejoin="round"/>
<path d="M378.7 23H387.2" stroke="#444E59" stroke-width="4" stroke-miterlimit="10" stroke-linecap="round" stroke-linejoin="round"/>
<path d="M368.4 23H371.5" stroke="#444E59" stroke-width="4" stroke-miterlimit="10" stroke-linecap="round" stroke-linejoin="round"/>
<path d="M382.8 105.299H304.6C299.8 105.299 296 101.399 296 96.6992V58.7992C296 53.9992 299.9 50.1992 304.6 50.1992H382.8C387.6 50.1992 391.4 54.0992 391.4 58.7992V96.5992C391.4 101.399 387.6 105.299 382.8 105.299Z" fill="#2FA9ED"/>
<path d="M382.8 105.299H304.6C299.8 105.299 296 101.399 296 96.6992V58.7992C296 53.9992 299.9 50.1992 304.6 50.1992H382.8C387.6 50.1992 391.4 54.0992 391.4 58.7992V96.5992C391.4 101.399 387.6 105.299 382.8 105.299Z" stroke="#444E59" stroke-width="3" stroke-miterlimit="10" stroke-linecap="round" stroke-linejoin="round"/>
<path opacity="0.56" d="M343.7 65H377.5" stroke="white" stroke-width="3" stroke-miterlimit="10" stroke-linecap="round" stroke-linejoin="round"/>
<path opacity="0.56" d="M343.7 75.9004H366.1" stroke="white" stroke-width="3" stroke-miterlimit="10" stroke-linecap="round" stroke-linejoin="round"/>
<g opacity="0.56">
<path opacity="0.56" d="M360.7 92.1996H347.1C345.3 92.1996 343.8 90.6996 343.8 88.8996C343.8 87.0996 345.3 85.5996 347.1 85.5996H360.7C362.5 85.5996 364 87.0996 364 88.8996C364 90.6996 362.6 92.1996 360.7 92.1996Z" fill="white"/>
<path opacity="0.56" d="M360.7 92.1996H347.1C345.3 92.1996 343.8 90.6996 343.8 88.8996C343.8 87.0996 345.3 85.5996 347.1 85.5996H360.7C362.5 85.5996 364 87.0996 364 88.8996C364 90.6996 362.6 92.1996 360.7 92.1996Z" stroke="white" stroke-width="3" stroke-miterlimit="10" stroke-linecap="round" stroke-linejoin="round"/>
</g>
<path d="M329.6 92.6996H311.7C309.1 92.6996 307.1 90.5996 307.1 88.0996V67.1996C307.1 64.5996 309.2 62.5996 311.7 62.5996H329.6C332.2 62.5996 334.2 64.6996 334.2 67.1996V88.0996C334.2 90.5996 332.2 92.6996 329.6 92.6996Z" stroke="white" stroke-width="3" stroke-miterlimit="10" stroke-linecap="round" stroke-linejoin="round"/>
<path d="M320.7 79.0004C323.351 79.0004 325.5 76.8513 325.5 74.2004C325.5 71.5494 323.351 69.4004 320.7 69.4004C318.049 69.4004 315.9 71.5494 315.9 74.2004C315.9 76.8513 318.049 79.0004 320.7 79.0004Z" stroke="white" stroke-width="3" stroke-miterlimit="10" stroke-linecap="round" stroke-linejoin="round"/>
<path d="M311.6 92.1996C311.6 87.1996 315.7 83.0996 320.7 83.0996C325.7 83.0996 329.8 87.1996 329.8 92.1996" stroke="white" stroke-width="3" stroke-miterlimit="10" stroke-linecap="round" stroke-linejoin="round"/>
<path d="M65.1571 368H402.935C407.474 368 411.827 369.803 415.036 373.012C418.245 376.222 420.048 380.574 420.048 385.113V608H48.0481V385.112C48.0484 380.574 49.8509 376.222 53.0593 373.013C56.2677 369.804 60.6193 368.001 65.1571 368Z" fill="#D2DCE6"/>
<path d="M65.1571 368H402.935C407.474 368 411.827 369.803 415.036 373.012C418.245 376.222 420.048 380.574 420.048 385.113V608H48.0481V385.112C48.0484 380.574 49.8509 376.222 53.0593 373.013C56.2677 369.804 60.6193 368.001 65.1571 368V368Z" stroke="#283035" stroke-width="6" stroke-linecap="round" stroke-linejoin="round"/>
<path d="M392.048 580.283V396.283H76.048V580.283H392.048Z" fill="#FF5C5C"/>
<path opacity="0.3" d="M259.464 550.93H311.464" stroke="white" stroke-width="6" stroke-linecap="round" stroke-linejoin="round"/>
<g opacity="0.3">
<path opacity="0.3" d="M386.237 493.734C387.238 493.671 388.231 493.947 389.056 494.517C389.88 495.087 390.489 495.918 390.784 496.877V485.422C389.686 485.101 388.548 484.935 387.404 484.93H386.237C383.721 484.93 382.463 486.187 382.464 488.703V490.049C382.464 492.476 383.721 493.734 386.237 493.734Z" fill="white"/>
<path opacity="0.3" d="M390.784 548.643C390.484 549.596 389.873 550.421 389.049 550.987C388.224 551.552 387.235 551.825 386.237 551.763C383.721 551.763 382.463 553.02 382.464 555.535V556.883C382.464 559.397 383.722 560.655 386.237 560.656H387.404C388.548 560.65 389.686 560.485 390.784 560.164V548.643Z" fill="white"/>
</g>
<path d="M392.048 580.283V396.283H76.048V580.283H392.048Z" stroke="#283035" stroke-width="6" stroke-linecap="round" stroke-linejoin="round"/>
<path d="M7 608.148H461.1C462.161 608.148 463.178 608.57 463.928 609.32C464.679 610.07 465.1 611.088 465.1 612.148V616.939C465.1 622.244 462.993 627.331 459.242 631.082C455.491 634.832 450.404 636.939 445.1 636.939H23C17.6957 636.939 12.6086 634.832 8.85786 631.082C5.10714 627.331 3 622.244 3 616.939V612.148C3 611.088 3.42142 610.07 4.17157 609.32C4.92172 608.57 5.93913 608.148 7 608.148Z" fill="#E5E5E5"/>
<path d="M445.096 627.935H22.996C18.2 627.931 13.5651 626.204 9.93732 623.067C6.30949 619.93 3.93066 615.593 3.235 610.848C3.08437 611.265 3.00493 611.704 3 612.148V616.939C3 622.243 5.10714 627.33 8.85786 631.081C12.6086 634.831 17.6957 636.939 23 636.939H445.1C450.404 636.939 455.491 634.831 459.242 631.081C462.993 627.33 465.1 622.243 465.1 616.939V612.148C465.095 611.704 465.016 611.265 464.865 610.848C464.169 615.594 461.789 619.932 458.16 623.069C454.53 626.206 449.893 627.933 445.096 627.935Z" fill="#CFD1D0"/>
<path d="M7 608.148H461.1C462.161 608.148 463.178 608.57 463.928 609.32C464.679 610.07 465.1 611.088 465.1 612.148V616.939C465.1 622.244 462.993 627.331 459.242 631.082C455.491 634.832 450.404 636.939 445.1 636.939H23C17.6957 636.939 12.6086 634.832 8.85786 631.082C5.10714 627.331 3 622.244 3 616.939V612.148C3 611.088 3.42142 610.07 4.17157 609.32C4.92172 608.57 5.93913 608.148 7 608.148Z" stroke="#283035" stroke-width="6" stroke-linecap="round" stroke-linejoin="round"/>
<path d="M192.048 608H276.048C276.048 610.122 275.205 612.157 273.705 613.657C272.205 615.157 270.17 616 268.048 616H200.048C197.926 616 195.891 615.157 194.391 613.657C192.891 612.157 192.048 610.122 192.048 608Z" fill="#686B6D"/>
<path d="M192.048 608H276.048C276.048 610.122 275.205 612.157 273.705 613.657C272.205 615.157 270.17 616 268.048 616H200.048C197.926 616 195.891 615.157 194.391 613.657C192.891 612.157 192.048 610.122 192.048 608Z" stroke="#283035" stroke-width="4" stroke-linecap="round" stroke-linejoin="round"/>
<path d="M233.261 389.766C237.679 389.766 241.261 386.184 241.261 381.766C241.261 377.347 237.679 373.766 233.261 373.766C228.843 373.766 225.261 377.347 225.261 381.766C225.261 386.184 228.843 389.766 233.261 389.766Z" fill="#686B6D"/>
<path d="M233.261 389.766C237.679 389.766 241.261 386.184 241.261 381.766C241.261 377.347 237.679 373.766 233.261 373.766C228.843 373.766 225.261 377.347 225.261 381.766C225.261 386.184 228.843 389.766 233.261 389.766Z" stroke="#283035" stroke-width="4" stroke-linecap="round" stroke-linejoin="round"/>
<g style="mix-blend-mode:multiply" opacity="0.14">
<path d="M281.456 431.93H129.472C125.049 431.93 121.464 435.515 121.464 439.938V557.922C121.464 562.344 125.049 565.93 129.472 565.93H281.456C285.879 565.93 289.464 562.344 289.464 557.922V439.938C289.464 435.515 285.879 431.93 281.456 431.93Z" fill="black"/>
</g>
<path d="M273.623 424.93H121.639C117.216 424.93 113.631 428.515 113.631 432.938V550.922C113.631 555.344 117.216 558.93 121.639 558.93H273.623C278.046 558.93 281.631 555.344 281.631 550.922V432.938C281.631 428.515 278.046 424.93 273.623 424.93Z" fill="#353F49"/>
<path d="M273.623 424.93H121.639C117.216 424.93 113.631 428.515 113.631 432.938V550.922C113.631 555.344 117.216 558.93 121.639 558.93H273.623C278.046 558.93 281.631 555.344 281.631 550.922V432.938C281.631 428.515 278.046 424.93 273.623 424.93Z" stroke="#283035" stroke-width="4" stroke-linecap="round" stroke-linejoin="round"/>
<path d="M121.638 424.93H273.623C275.747 424.93 277.784 425.773 279.286 427.275C280.787 428.777 281.631 430.814 281.631 432.938V444.93H113.631V432.938C113.631 430.814 114.475 428.777 115.976 427.276C117.478 425.774 119.514 424.93 121.638 424.93Z" fill="#EAEEEF"/>
<path d="M121.638 424.93H273.623C275.747 424.93 277.784 425.773 279.286 427.275C280.787 428.777 281.631 430.814 281.631 432.938V444.93H113.631V432.938C113.631 430.814 114.475 428.777 115.976 427.276C117.478 425.774 119.514 424.93 121.638 424.93Z" stroke="#283035" stroke-width="4" stroke-linecap="round" stroke-linejoin="round"/>
<path opacity="0.35" d="M127.964 438.055C129.69 438.055 131.089 436.656 131.089 434.93C131.089 433.204 129.69 431.805 127.964 431.805C126.238 431.805 124.839 433.204 124.839 434.93C124.839 436.656 126.238 438.055 127.964 438.055Z" fill="#283035"/>
<path opacity="0.35" d="M137.797 438.055C139.523 438.055 140.922 436.656 140.922 434.93C140.922 433.204 139.523 431.805 137.797 431.805C136.071 431.805 134.672 433.204 134.672 434.93C134.672 436.656 136.071 438.055 137.797 438.055Z" fill="#283035"/>
<path opacity="0.35" d="M147.131 438.055C148.857 438.055 150.256 436.656 150.256 434.93C150.256 433.204 148.857 431.805 147.131 431.805C145.405 431.805 144.006 433.204 144.006 434.93C144.006 436.656 145.405 438.055 147.131 438.055Z" fill="#283035"/>
<path d="M121.464 451.93H132.464" stroke="#46BB86" stroke-width="3" stroke-miterlimit="10"/>
<path d="M136.464 451.93H166.464" stroke="#46BB86" stroke-width="3" stroke-miterlimit="10"/>
<path d="M121.464 459.93H166.464" stroke="#389ABE" stroke-width="3" stroke-miterlimit="10"/>
<path d="M130.464 467.93H152.464" stroke="#E5C689" stroke-width="3" stroke-miterlimit="10"/>
<path d="M156.464 467.93H180.464" stroke="#F2F3F4" stroke-width="3" stroke-miterlimit="10"/>
<path d="M142.464 475.93H188.464" stroke="#F2F3F4" stroke-width="3" stroke-miterlimit="10"/>
<path d="M142.464 483.93H176.464" stroke="#FFA49F" stroke-width="3" stroke-miterlimit="10"/>
<path d="M130.464 491.93H180.464" stroke="#F2F3F4" stroke-width="3" stroke-miterlimit="10"/>
<path d="M121.464 498.93H148.464" stroke="#389ABE" stroke-width="3" stroke-miterlimit="10"/>
<g opacity="0.3">
<path opacity="0.3" d="M354.1 537.671C354.1 533.719 352.572 530.935 349.518 529.228C347.362 528.06 346.464 527.161 346.464 525.096V521.596C346.464 519.171 347.542 518.632 349.428 517.374C352.572 516.027 354.1 513.153 354.1 508.841V501.205C354.1 495.097 356.345 490.605 359.579 488.719C361.998 486.993 364.874 486.024 367.843 485.934H369.011C371.526 485.934 372.783 487.191 372.784 489.707V491.049C372.784 493.474 371.526 494.732 369.011 494.732C365.511 494.732 363.801 497.247 363.801 502.367V511.799C363.89 514.088 363.319 516.356 362.157 518.33C360.995 520.305 359.289 521.904 357.244 522.938L356.435 523.207V523.387C357.357 523.659 358.213 524.118 358.95 524.735C361.196 526.081 363.801 529.226 363.801 534.705V545.215C363.801 550.245 365.508 552.761 369.011 552.761C371.526 552.761 372.783 554.018 372.784 556.533V557.881C372.784 560.395 371.526 561.653 369.011 561.654H367.843C364.874 561.563 361.998 560.594 359.579 558.869C356.345 556.983 354.1 552.402 354.1 546.383V537.671Z" fill="white"/>
</g>
</svg>
