<svg width="639" height="323" viewBox="0 0 639 323" fill="none" xmlns="http://www.w3.org/2000/svg">
<path d="M629.3 322.7H9C4 322.7 0 318.7 0 313.7C0 308.7 4 304.7 9 304.7H629.3C634.3 304.7 638.3 308.7 638.3 313.7C638.3 318.7 634.3 322.7 629.3 322.7Z" fill="#C9C9C9"/>
<path d="M96.3 188.7C86.7 188.7 79 180.9 79 171.4C79 161.9 86.8 154.1 96.3 154.1H194.3V188.8H96.3V188.7Z" fill="#CECECE"/>
<path d="M200 194.7H96.3C83.4 194.7 73 184.2 73 171.4C73 158.5 83.5 148.1 96.3 148.1H200V194.7Z" fill="white"/>
<path d="M89.9 166H194.3" stroke="#1F3969" stroke-width="4" stroke-miterlimit="10" stroke-linecap="round" stroke-linejoin="round"/>
<path d="M89.9 176.6H194.3" stroke="#1F3969" stroke-width="4" stroke-miterlimit="10" stroke-linecap="round" stroke-linejoin="round"/>
<path d="M96.3 188.7C86.7 188.7 79 180.9 79 171.4C79 161.9 86.8 154.1 96.3 154.1H194.3V188.8H96.3V188.7Z" stroke="#1F3969" stroke-width="4" stroke-miterlimit="10" stroke-linecap="round" stroke-linejoin="round"/>
<path d="M96.3 188.7C86.7 188.7 79 180.9 79 171.4C79 161.9 86.8 154.1 96.3 154.1H196L200 148.1H96.3C83.4 148.1 73 158.6 73 171.4C73 184.3 83.5 194.7 96.3 194.7H200L196 188.7H96.3Z" fill="#FF3E3E"/>
<path d="M96.3 188.7C86.7 188.7 79 180.9 79 171.4C79 161.9 86.8 154.1 96.3 154.1H196L200 148.1H96.3C83.4 148.1 73 158.6 73 171.4C73 184.3 83.5 194.7 96.3 194.7H200L196 188.7H96.3Z" stroke="#1F3969" stroke-width="4" stroke-miterlimit="10" stroke-linecap="round" stroke-linejoin="round"/>
<path opacity="0.28" d="M177.7 148H159.3V194.7H177.7V148Z" fill="#1F3969" stroke="#1F3969" stroke-width="4" stroke-miterlimit="10" stroke-linecap="round" stroke-linejoin="round"/>
<path d="M218.7 274.2H28.8C25.1 274.2 22 271.2 22 267.4V242.4C22 238.7 25 235.6 28.8 235.6H218.7C222.4 235.6 225.5 238.6 225.5 242.4V267.4C225.5 271.2 222.5 274.2 218.7 274.2Z" fill="#50B56F"/>
<path d="M218.7 274.2H28.8C25.1 274.2 22 271.2 22 267.4V242.4C22 238.7 25 235.6 28.8 235.6H218.7C222.4 235.6 225.5 238.6 225.5 242.4V267.4C225.5 271.2 222.5 274.2 218.7 274.2Z" stroke="#1F3969" stroke-width="4" stroke-miterlimit="10" stroke-linecap="round" stroke-linejoin="round"/>
<path d="M234.5 235H44.6001C40.9001 235 37.8 232 37.8 228.2V203.2C37.8 199.5 40.8001 196.4 44.6001 196.4H234.5C238.2 196.4 241.3 199.4 241.3 203.2V228.2C241.3 232 238.3 235 234.5 235Z" fill="#50B56F"/>
<path d="M234.5 235H44.6001C40.9001 235 37.8 232 37.8 228.2V203.2C37.8 199.5 40.8001 196.4 44.6001 196.4H234.5C238.2 196.4 241.3 199.4 241.3 203.2V228.2C241.3 232 238.3 235 234.5 235Z" stroke="#1F3969" stroke-width="4" stroke-miterlimit="10" stroke-linecap="round" stroke-linejoin="round"/>
<path opacity="0.28" d="M218.7 235.7H188.7V250.7C188.7 260.1 196.3 267.8 205.8 267.8H225.5C225.5 267.7 225.5 267.6 225.5 267.5V242.5C225.5 238.7 222.5 235.7 218.7 235.7Z" fill="#1F3969" stroke="#1F3969" stroke-width="4" stroke-miterlimit="10" stroke-linecap="round" stroke-linejoin="round"/>
<path d="M272.2 282H52.2C53.5 285.2 54.2 289.2 54.2 293.4C54.2 297.6 53.5 301.5 52.2 304.8H272.1C270.8 301.6 270.1 297.6 270.1 293.4C270.2 289.1 270.9 285.2 272.2 282Z" fill="#CECECE"/>
<path d="M278.2 275.9H46.3V281.9H278.2V275.9Z" fill="#5F5AFF"/>
<path d="M278.2 275.9H46.3V281.9H278.2V275.9Z" stroke="#1F3969" stroke-width="4" stroke-miterlimit="10" stroke-linecap="round" stroke-linejoin="round"/>
<path d="M278.2 304.7H46.3V310.7H278.2V304.7Z" fill="#F6F9FD"/>
<path d="M278.2 304.7H46.3V310.7H278.2V304.7Z" fill="#5F5AFF"/>
<path d="M278.2 304.7H46.3V310.7H278.2V304.7Z" stroke="#1F3969" stroke-width="4" stroke-miterlimit="10" stroke-linecap="round" stroke-linejoin="round"/>
<path d="M393.4 289.4L390.4 255.7H341L338 289.4C337.3 297.2 332.6 304.7 325.2 310.7V310.8H406.2V310.7C398.8 304.7 394.1 297.2 393.4 289.4Z" fill="#BFCFE2"/>
<path opacity="0.28" d="M341 255.7L339.2 275.9H392.2L390.4 255.7H341Z" fill="#1F3969" stroke="#1F3969" stroke-width="4" stroke-miterlimit="10" stroke-linecap="round" stroke-linejoin="round"/>
<path d="M393.4 289.4L390.4 255.7H341L338 289.4C337.3 297.2 332.6 304.7 325.2 310.7V310.8H406.2V310.7C398.8 304.7 394.1 297.2 393.4 289.4Z" stroke="#1F3969" stroke-width="4" stroke-miterlimit="10" stroke-linecap="round" stroke-linejoin="round"/>
<path d="M523.7 260.7H207.7C201.1 260.7 195.7 255.3 195.7 248.7V42.7002C195.7 36.1002 201.1 30.7002 207.7 30.7002H523.7C530.3 30.7002 535.7 36.1002 535.7 42.7002V248.7C535.7 255.4 530.3 260.7 523.7 260.7Z" fill="white"/>
<path d="M523.7 260.7H207.7C201.1 260.7 195.7 255.3 195.7 248.7V42.7002C195.7 36.1002 201.1 30.7002 207.7 30.7002H523.7C530.3 30.7002 535.7 36.1002 535.7 42.7002V248.7C535.7 255.4 530.3 260.7 523.7 260.7Z" fill="#BFCFE2"/>
<path d="M523.7 260.7H207.7C201.1 260.7 195.7 255.3 195.7 248.7V42.7002C195.7 36.1002 201.1 30.7002 207.7 30.7002H523.7C530.3 30.7002 535.7 36.1002 535.7 42.7002V248.7C535.7 255.4 530.3 260.7 523.7 260.7Z" stroke="#1F3969" stroke-width="4" stroke-miterlimit="10" stroke-linecap="round" stroke-linejoin="round"/>
<path d="M518.756 222.329V47.7285L212.756 47.7285L212.756 222.329L518.756 222.329Z" fill="#F6F9FD"/>
<path opacity="0.28" d="M223.7 30.7002V169.3C223.7 173.7 227.3 177.3 231.7 177.3H420.8C425.2 177.3 428.8 173.7 428.8 169.3V30.7002H223.7Z" fill="#1F3969" stroke="#1F3969" stroke-width="4" stroke-miterlimit="10" stroke-linecap="round" stroke-linejoin="round"/>
<path d="M518.756 222.329V47.7285L212.756 47.7285L212.756 222.329L518.756 222.329Z" stroke="#1F3969" stroke-width="4" stroke-miterlimit="10" stroke-linecap="round" stroke-linejoin="round"/>
<path d="M352.3 241.4H379.2" stroke="#1F3969" stroke-width="4" stroke-miterlimit="10" stroke-linecap="round" stroke-linejoin="round"/>
<path d="M429.8 166.3H240.7C236.3 166.3 232.7 162.7 232.7 158.3V10.0996C232.7 5.69961 236.3 2.09961 240.7 2.09961H429.8C434.2 2.09961 437.8 5.69961 437.8 10.0996V158.4C437.8 162.8 434.2 166.3 429.8 166.3Z" fill="#2D425E"/>
<path d="M437.8 21.5H232.7V10C232.7 5.6 236.3 2 240.7 2H429.8C434.2 2 437.8 5.6 437.8 10V21.5Z" stroke="#1F3969" stroke-width="4" stroke-miterlimit="10" stroke-linecap="round" stroke-linejoin="round"/>
<path d="M437.8 25.3H232.7V10C232.7 5.6 236.3 2 240.7 2H429.8C434.2 2 437.8 5.6 437.8 10V25.3Z" fill="#D0DDF0"/>
<path d="M437.8 25.3H232.7V10C232.7 5.6 236.3 2 240.7 2H429.8C434.2 2 437.8 5.6 437.8 10V25.3Z" stroke="#1F3969" stroke-width="4" stroke-miterlimit="10" stroke-linecap="round" stroke-linejoin="round"/>
<path d="M437.8 25.3H232.7V10C232.7 5.6 236.3 2 240.7 2H429.8C434.2 2 437.8 5.6 437.8 10V25.3Z" stroke="#1F3969" stroke-width="4" stroke-miterlimit="10" stroke-linecap="round" stroke-linejoin="round"/>
<path d="M429.8 166.3H240.7C236.3 166.3 232.7 162.7 232.7 158.3V10.0996C232.7 5.69961 236.3 2.09961 240.7 2.09961H429.8C434.2 2.09961 437.8 5.69961 437.8 10.0996V158.4C437.8 162.8 434.2 166.3 429.8 166.3Z" stroke="#1F3969" stroke-width="4" stroke-miterlimit="10" stroke-linecap="round" stroke-linejoin="round"/>
<path opacity="0.28" d="M528.5 201.7H412.5C408.1 201.7 404.5 198.1 404.5 193.7V70.7998C404.5 66.3998 408.1 62.7998 412.5 62.7998H528.5C532.9 62.7998 536.5 66.3998 536.5 70.7998V193.7C536.5 198.2 532.9 201.7 528.5 201.7Z" fill="#1F3969" stroke="#1F3969" stroke-width="4" stroke-miterlimit="10" stroke-linecap="round" stroke-linejoin="round"/>
<path d="M536.5 194.7H420.5C416.1 194.7 412.5 191.1 412.5 186.7V63.7998C412.5 59.3998 416.1 55.7998 420.5 55.7998H536.5C540.9 55.7998 544.5 59.3998 544.5 63.7998V186.7C544.5 191.2 540.9 194.7 536.5 194.7Z" fill="#2AA1FF"/>
<path d="M536.5 194.7H420.5C416.1 194.7 412.5 191.1 412.5 186.7V63.7998C412.5 59.3998 416.1 55.7998 420.5 55.7998H536.5C540.9 55.7998 544.5 59.3998 544.5 63.7998V186.7C544.5 191.2 540.9 194.7 536.5 194.7Z" stroke="#1F3969" stroke-width="4" stroke-miterlimit="10" stroke-linecap="round" stroke-linejoin="round"/>
<path opacity="0.34" d="M519.2 93.9002H437.6C434.7 93.9002 432.4 91.6002 432.4 88.7002V80.9002C432.4 78.0002 434.7 75.7002 437.6 75.7002H519.2C522.1 75.7002 524.4 78.0002 524.4 80.9002V88.7002C524.4 91.6002 522.1 93.9002 519.2 93.9002Z" stroke="white" stroke-width="2" stroke-miterlimit="10" stroke-linecap="round" stroke-linejoin="round"/>
<g opacity="0.34">
<path opacity="0.34" d="M483.4 123.2H437.8C434.9 123.2 432.6 120.9 432.6 118V110.2C432.6 107.3 434.9 105 437.8 105H483.4C486.3 105 488.6 107.3 488.6 110.2V118C488.5 120.9 486.2 123.2 483.4 123.2Z" stroke="white" stroke-width="2" stroke-miterlimit="10" stroke-linecap="round" stroke-linejoin="round"/>
<path opacity="0.34" d="M519.3 123.2H501.6C498.7 123.2 496.4 120.9 496.4 118V110.2C496.4 107.3 498.7 105 501.6 105H519.3C522.2 105 524.5 107.3 524.5 110.2V118C524.5 120.9 522.2 123.2 519.3 123.2Z" stroke="white" stroke-width="2" stroke-miterlimit="10" stroke-linecap="round" stroke-linejoin="round"/>
</g>
<path d="M432.5 153.6H524.4" stroke="white" stroke-width="2" stroke-miterlimit="10" stroke-linecap="round" stroke-linejoin="round"/>
<path d="M432.5 164.399H524.4" stroke="white" stroke-width="2" stroke-miterlimit="10" stroke-linecap="round" stroke-linejoin="round"/>
<path d="M432.5 175.199H488.5" stroke="white" stroke-width="2" stroke-miterlimit="10" stroke-linecap="round" stroke-linejoin="round"/>
<path d="M252.8 17.7002C255.009 17.7002 256.8 15.9093 256.8 13.7002C256.8 11.4911 255.009 9.7002 252.8 9.7002C250.591 9.7002 248.8 11.4911 248.8 13.7002C248.8 15.9093 250.591 17.7002 252.8 17.7002Z" fill="#1F3969"/>
<path d="M266.7 17.7002C268.909 17.7002 270.7 15.9093 270.7 13.7002C270.7 11.4911 268.909 9.7002 266.7 9.7002C264.491 9.7002 262.7 11.4911 262.7 13.7002C262.7 15.9093 264.491 17.7002 266.7 17.7002Z" fill="#1F3969"/>
<path d="M280.6 17.7002C282.809 17.7002 284.6 15.9093 284.6 13.7002C284.6 11.4911 282.809 9.7002 280.6 9.7002C278.391 9.7002 276.6 11.4911 276.6 13.7002C276.6 15.9093 278.391 17.7002 280.6 17.7002Z" fill="#1F3969"/>
<path d="M350.5 43.7998H363.5" stroke="white" stroke-width="4" stroke-miterlimit="10" stroke-linecap="round" stroke-linejoin="round"/>
<path d="M284.6 43.7998H340.9" stroke="#7BFFA0" stroke-width="4" stroke-miterlimit="10" stroke-linecap="round" stroke-linejoin="round"/>
<path d="M256.8 43.7998H276.6" stroke="#9169FF" stroke-width="4" stroke-miterlimit="10" stroke-linecap="round" stroke-linejoin="round"/>
<path d="M282.6 142.3H325.6" stroke="#9169FF" stroke-width="4" stroke-miterlimit="10" stroke-linecap="round" stroke-linejoin="round"/>
<path d="M256.8 142.3H270.7" stroke="#7BFFA0" stroke-width="4" stroke-miterlimit="10" stroke-linecap="round" stroke-linejoin="round"/>
<path d="M340.9 56.0996H349" stroke="white" stroke-width="4" stroke-miterlimit="10" stroke-linecap="round" stroke-linejoin="round"/>
<path d="M304.1 56.0996H331.3" stroke="#9169FF" stroke-width="4" stroke-miterlimit="10" stroke-linecap="round" stroke-linejoin="round"/>
<path d="M266.7 56.0996H294.4" stroke="#FFC47D" stroke-width="4" stroke-miterlimit="10" stroke-linecap="round" stroke-linejoin="round"/>
<path d="M309.6 68.4004H333.5" stroke="white" stroke-width="4" stroke-miterlimit="10" stroke-linecap="round" stroke-linejoin="round"/>
<path d="M279.6 68.4004H302.1" stroke="#FF5757" stroke-width="4" stroke-miterlimit="10" stroke-linecap="round" stroke-linejoin="round"/>
<path d="M312.8 80.7002H317.7" stroke="white" stroke-width="4" stroke-miterlimit="10" stroke-linecap="round" stroke-linejoin="round"/>
<path d="M293 80.7002H304.1" stroke="#9169FF" stroke-width="4" stroke-miterlimit="10" stroke-linecap="round" stroke-linejoin="round"/>
<path d="M266.7 80.7002H284.6" stroke="#7BFFA0" stroke-width="4" stroke-miterlimit="10" stroke-linecap="round" stroke-linejoin="round"/>
<path d="M305.1 93.0996H337" stroke="#FFC47D" stroke-width="4" stroke-miterlimit="10" stroke-linecap="round" stroke-linejoin="round"/>
<path d="M266.7 93.0996H295.3" stroke="#FF5757" stroke-width="4" stroke-miterlimit="10" stroke-linecap="round" stroke-linejoin="round"/>
<path d="M342 105.4H359.3" stroke="#9169FF" stroke-width="4" stroke-miterlimit="10" stroke-linecap="round" stroke-linejoin="round"/>
<path d="M305.1 105.4H332.8" stroke="#FF5757" stroke-width="4" stroke-miterlimit="10" stroke-linecap="round" stroke-linejoin="round"/>
<path d="M279.6 105.4H295.3" stroke="#7BFFA0" stroke-width="4" stroke-miterlimit="10" stroke-linecap="round" stroke-linejoin="round"/>
<path d="M317.7 117.7H332.8" stroke="white" stroke-width="4" stroke-miterlimit="10" stroke-linecap="round" stroke-linejoin="round"/>
<path d="M279.6 117.7H307.3" stroke="#9169FF" stroke-width="4" stroke-miterlimit="10" stroke-linecap="round" stroke-linejoin="round"/>
<path d="M357 130H374.3" stroke="white" stroke-width="4" stroke-miterlimit="10" stroke-linecap="round" stroke-linejoin="round"/>
<path d="M304.1 130H347.6" stroke="#FFC47D" stroke-width="4" stroke-miterlimit="10" stroke-linecap="round" stroke-linejoin="round"/>
<path d="M266.7 130H294.4" stroke="white" stroke-width="4" stroke-miterlimit="10" stroke-linecap="round" stroke-linejoin="round"/>
<path d="M54.7 288.9H270.2" stroke="#1F3969" stroke-width="4" stroke-miterlimit="10" stroke-linecap="round" stroke-linejoin="round"/>
<path d="M54.7 296.9H270.2" stroke="#1F3969" stroke-width="4" stroke-miterlimit="10" stroke-linecap="round" stroke-linejoin="round"/>
<path d="M272.2 282H52.2C53.5 285.2 54.2 289.2 54.2 293.4C54.2 297.6 53.5 301.5 52.2 304.8H272.1C270.8 301.6 270.1 297.6 270.1 293.4C270.2 289.1 270.9 285.2 272.2 282Z" stroke="#1F3969" stroke-width="4" stroke-miterlimit="10" stroke-linecap="round" stroke-linejoin="round"/>
<path d="M568.149 200.471L558.416 201.613L566.881 273.72L576.614 272.577L568.149 200.471Z" fill="#FFA364"/>
<path d="M568.162 200.547L558.429 201.689L559.292 209.039L569.025 207.896L568.162 200.547Z" fill="#2AA1FF"/>
<path d="M568.162 200.547L558.429 201.689L559.292 209.039L569.025 207.896L568.162 200.547Z" stroke="#1F3969" stroke-width="4" stroke-miterlimit="10" stroke-linecap="round" stroke-linejoin="round"/>
<path d="M568.149 200.471L558.416 201.613L566.881 273.72L576.614 272.577L568.149 200.471Z" stroke="#1F3969" stroke-width="4" stroke-miterlimit="10" stroke-linecap="round" stroke-linejoin="round"/>
<path d="M594.839 215.24L585.097 214.181L577.248 286.352L586.991 287.412L594.839 215.24Z" fill="#FF5252"/>
<path d="M594.839 215.24L585.097 214.181L577.248 286.352L586.991 287.412L594.839 215.24Z" stroke="#1F3969" stroke-width="4" stroke-miterlimit="10" stroke-linecap="round" stroke-linejoin="round"/>
<path d="M594.911 215.257L585.169 214.197L584.369 221.554L594.111 222.613L594.911 215.257Z" fill="#2D425E"/>
<path d="M594.911 215.257L585.169 214.197L584.369 221.554L594.111 222.613L594.911 215.257Z" stroke="#1F3969" stroke-width="4" stroke-miterlimit="10" stroke-linecap="round" stroke-linejoin="round"/>
<path d="M600.9 311H561.6L555.2 250.8H607.3L600.9 311Z" fill="#6567C3"/>
<path d="M555.2 250.8L555.3 251.9H595L588.7 311H600.9L607.3 250.8H555.2Z" fill="#6567C3"/>
<path d="M600.9 311H561.6L555.2 250.8H607.3L600.9 311Z" stroke="#1F3969" stroke-width="4" stroke-miterlimit="10" stroke-linecap="round" stroke-linejoin="round"/>
<path d="M77.3295 247.455H79.0909V257.852C79.0909 258.78 78.9205 259.569 78.5795 260.217C78.2386 260.866 77.758 261.358 77.1378 261.695C76.5175 262.031 75.786 262.199 74.9432 262.199C74.1477 262.199 73.4399 262.054 72.8196 261.766C72.1993 261.472 71.7116 261.055 71.3565 260.516C71.0014 259.976 70.8239 259.334 70.8239 258.591H72.5568C72.5568 259.003 72.6586 259.363 72.8622 259.67C73.0705 259.973 73.3546 260.21 73.7145 260.381C74.0743 260.551 74.4839 260.636 74.9432 260.636C75.4498 260.636 75.8807 260.53 76.2358 260.317C76.5909 260.104 76.8608 259.791 77.0455 259.379C77.2348 258.963 77.3295 258.454 77.3295 257.852V247.455ZM85.6037 262.256C84.9124 262.256 84.285 262.125 83.7216 261.865C83.1581 261.6 82.7107 261.219 82.3793 260.722C82.0478 260.22 81.8821 259.614 81.8821 258.903C81.8821 258.278 82.0052 257.772 82.2514 257.384C82.4976 256.991 82.8267 256.683 83.2386 256.46C83.6506 256.238 84.1051 256.072 84.6023 255.963C85.1042 255.849 85.6084 255.759 86.1151 255.693C86.7779 255.608 87.3153 255.544 87.7273 255.501C88.1439 255.454 88.447 255.376 88.6364 255.267C88.8305 255.158 88.9276 254.969 88.9276 254.699V254.642C88.9276 253.941 88.7358 253.397 88.3523 253.009C87.9735 252.62 87.3982 252.426 86.6264 252.426C85.8262 252.426 85.1989 252.601 84.7443 252.952C84.2898 253.302 83.9702 253.676 83.7855 254.074L82.1946 253.506C82.4787 252.843 82.8575 252.327 83.331 251.957C83.8092 251.583 84.33 251.323 84.8935 251.176C85.4616 251.025 86.0204 250.949 86.5696 250.949C86.92 250.949 87.3224 250.991 87.777 251.077C88.2363 251.157 88.679 251.325 89.1051 251.581C89.536 251.837 89.8935 252.223 90.1776 252.739C90.4616 253.255 90.6037 253.946 90.6037 254.812V262H88.9276V260.523H88.8423C88.7287 260.759 88.5393 261.013 88.2741 261.283C88.009 261.553 87.6563 261.782 87.2159 261.972C86.7756 262.161 86.2382 262.256 85.6037 262.256ZM85.8594 260.75C86.5223 260.75 87.081 260.62 87.5355 260.359C87.9948 260.099 88.3404 259.763 88.5724 259.351C88.8092 258.939 88.9276 258.506 88.9276 258.051V256.517C88.8565 256.602 88.7003 256.68 88.4588 256.751C88.2221 256.818 87.9474 256.877 87.6349 256.929C87.3272 256.976 87.0265 257.019 86.733 257.057C86.4441 257.09 86.2098 257.118 86.0298 257.142C85.5942 257.199 85.187 257.291 84.8082 257.419C84.4342 257.542 84.1312 257.729 83.8991 257.98C83.6719 258.226 83.5582 258.562 83.5582 258.989C83.5582 259.571 83.7737 260.011 84.2045 260.31C84.6402 260.603 85.1918 260.75 85.8594 260.75ZM102.193 251.091L98.1587 262H96.4542L92.4201 251.091H94.2383L97.2496 259.784H97.3633L100.375 251.091H102.193ZM107.283 262.256C106.592 262.256 105.965 262.125 105.401 261.865C104.838 261.6 104.39 261.219 104.059 260.722C103.728 260.22 103.562 259.614 103.562 258.903C103.562 258.278 103.685 257.772 103.931 257.384C104.177 256.991 104.506 256.683 104.918 256.46C105.33 256.238 105.785 256.072 106.282 255.963C106.784 255.849 107.288 255.759 107.795 255.693C108.458 255.608 108.995 255.544 109.407 255.501C109.824 255.454 110.127 255.376 110.316 255.267C110.51 255.158 110.607 254.969 110.607 254.699V254.642C110.607 253.941 110.415 253.397 110.032 253.009C109.653 252.62 109.078 252.426 108.306 252.426C107.506 252.426 106.879 252.601 106.424 252.952C105.969 253.302 105.65 253.676 105.465 254.074L103.874 253.506C104.158 252.843 104.537 252.327 105.011 251.957C105.489 251.583 106.01 251.323 106.573 251.176C107.141 251.025 107.7 250.949 108.249 250.949C108.6 250.949 109.002 250.991 109.457 251.077C109.916 251.157 110.359 251.325 110.785 251.581C111.216 251.837 111.573 252.223 111.857 252.739C112.141 253.255 112.283 253.946 112.283 254.812V262H110.607V260.523H110.522C110.408 260.759 110.219 261.013 109.954 261.283C109.689 261.553 109.336 261.782 108.896 261.972C108.455 262.161 107.918 262.256 107.283 262.256ZM107.539 260.75C108.202 260.75 108.761 260.62 109.215 260.359C109.674 260.099 110.02 259.763 110.252 259.351C110.489 258.939 110.607 258.506 110.607 258.051V256.517C110.536 256.602 110.38 256.68 110.138 256.751C109.902 256.818 109.627 256.877 109.315 256.929C109.007 256.976 108.706 257.019 108.413 257.057C108.124 257.09 107.889 257.118 107.71 257.142C107.274 257.199 106.867 257.291 106.488 257.419C106.114 257.542 105.811 257.729 105.579 257.98C105.352 258.226 105.238 258.562 105.238 258.989C105.238 259.571 105.453 260.011 105.884 260.31C106.32 260.603 106.871 260.75 107.539 260.75ZM123.525 251.091C123.439 250.371 123.094 249.812 122.488 249.415C121.882 249.017 121.138 248.818 120.257 248.818C119.614 248.818 119.05 248.922 118.567 249.131C118.089 249.339 117.715 249.625 117.445 249.99C117.18 250.355 117.047 250.769 117.047 251.233C117.047 251.621 117.14 251.955 117.324 252.234C117.514 252.509 117.755 252.739 118.049 252.923C118.342 253.103 118.65 253.252 118.972 253.371C119.294 253.484 119.59 253.577 119.86 253.648L121.337 254.045C121.716 254.145 122.137 254.282 122.601 254.457C123.07 254.633 123.517 254.872 123.944 255.175C124.374 255.473 124.73 255.857 125.009 256.325C125.288 256.794 125.428 257.369 125.428 258.051C125.428 258.837 125.222 259.547 124.81 260.182C124.403 260.816 123.806 261.321 123.02 261.695C122.239 262.069 121.29 262.256 120.172 262.256C119.131 262.256 118.229 262.088 117.466 261.751C116.709 261.415 116.112 260.946 115.676 260.345C115.246 259.744 115.002 259.045 114.945 258.25H116.763C116.81 258.799 116.995 259.254 117.317 259.614C117.644 259.969 118.056 260.234 118.553 260.409C119.055 260.58 119.595 260.665 120.172 260.665C120.845 260.665 121.448 260.556 121.983 260.338C122.518 260.116 122.942 259.808 123.255 259.415C123.567 259.017 123.723 258.553 123.723 258.023C123.723 257.54 123.588 257.147 123.319 256.844C123.049 256.541 122.694 256.295 122.253 256.105C121.813 255.916 121.337 255.75 120.826 255.608L119.036 255.097C117.9 254.77 117 254.304 116.337 253.697C115.674 253.091 115.343 252.298 115.343 251.318C115.343 250.504 115.563 249.794 116.003 249.188C116.448 248.577 117.045 248.103 117.793 247.767C118.546 247.426 119.386 247.256 120.314 247.256C121.252 247.256 122.085 247.424 122.814 247.76C123.543 248.091 124.121 248.546 124.547 249.124C124.978 249.701 125.205 250.357 125.229 251.091H123.525ZM132.528 262.227C131.506 262.227 130.625 261.986 129.886 261.503C129.148 261.02 128.58 260.355 128.182 259.507C127.784 258.66 127.585 257.691 127.585 256.602C127.585 255.494 127.789 254.517 128.196 253.669C128.608 252.817 129.181 252.152 129.915 251.673C130.653 251.19 131.515 250.949 132.5 250.949C133.267 250.949 133.958 251.091 134.574 251.375C135.189 251.659 135.694 252.057 136.087 252.568C136.48 253.08 136.723 253.676 136.818 254.358H135.142C135.014 253.861 134.73 253.42 134.29 253.037C133.854 252.649 133.267 252.455 132.528 252.455C131.875 252.455 131.302 252.625 130.81 252.966C130.322 253.302 129.941 253.778 129.666 254.393C129.396 255.004 129.261 255.722 129.261 256.545C129.261 257.388 129.394 258.122 129.659 258.747C129.929 259.372 130.308 259.857 130.795 260.203C131.288 260.549 131.866 260.722 132.528 260.722C132.964 260.722 133.359 260.646 133.714 260.494C134.07 260.343 134.37 260.125 134.616 259.841C134.863 259.557 135.038 259.216 135.142 258.818H136.818C136.723 259.462 136.489 260.042 136.115 260.558C135.746 261.07 135.256 261.477 134.645 261.78C134.039 262.078 133.333 262.227 132.528 262.227ZM139.268 262V251.091H140.888V252.739H141.001C141.2 252.199 141.56 251.761 142.081 251.425C142.602 251.089 143.189 250.92 143.842 250.92C143.965 250.92 144.119 250.923 144.304 250.928C144.489 250.932 144.628 250.939 144.723 250.949V252.653C144.666 252.639 144.536 252.618 144.332 252.589C144.134 252.556 143.923 252.54 143.7 252.54C143.17 252.54 142.696 252.651 142.28 252.874C141.868 253.091 141.541 253.394 141.3 253.783C141.063 254.166 140.945 254.604 140.945 255.097V262H139.268ZM146.71 262V251.091H148.386V262H146.71ZM147.562 249.273C147.235 249.273 146.954 249.161 146.717 248.939C146.485 248.716 146.369 248.449 146.369 248.136C146.369 247.824 146.485 247.556 146.717 247.334C146.954 247.111 147.235 247 147.562 247C147.889 247 148.168 247.111 148.4 247.334C148.637 247.556 148.755 247.824 148.755 248.136C148.755 248.449 148.637 248.716 148.4 248.939C148.168 249.161 147.889 249.273 147.562 249.273ZM151.456 266.091V251.091H153.075V252.824H153.274C153.397 252.634 153.568 252.393 153.786 252.099C154.008 251.801 154.325 251.536 154.737 251.304C155.154 251.067 155.717 250.949 156.428 250.949C157.346 250.949 158.156 251.179 158.857 251.638C159.557 252.097 160.104 252.748 160.497 253.591C160.89 254.434 161.087 255.428 161.087 256.574C161.087 257.729 160.89 258.731 160.497 259.578C160.104 260.421 159.56 261.074 158.864 261.538C158.168 261.998 157.365 262.227 156.456 262.227C155.755 262.227 155.194 262.111 154.773 261.879C154.351 261.643 154.027 261.375 153.8 261.077C153.572 260.774 153.397 260.523 153.274 260.324H153.132V266.091H151.456ZM153.104 256.545C153.104 257.369 153.224 258.096 153.466 258.726C153.707 259.351 154.06 259.841 154.524 260.196C154.988 260.546 155.556 260.722 156.229 260.722C156.929 260.722 157.514 260.537 157.983 260.168C158.456 259.794 158.812 259.292 159.048 258.662C159.29 258.027 159.411 257.322 159.411 256.545C159.411 255.778 159.292 255.087 159.055 254.472C158.823 253.851 158.471 253.361 157.997 253.001C157.528 252.637 156.939 252.455 156.229 252.455C155.547 252.455 154.974 252.627 154.51 252.973C154.046 253.314 153.696 253.792 153.459 254.408C153.222 255.018 153.104 255.731 153.104 256.545ZM168.388 251.091V252.511H162.734V251.091H168.388ZM164.382 248.477H166.058V258.875C166.058 259.348 166.127 259.704 166.264 259.94C166.406 260.172 166.586 260.329 166.804 260.409C167.027 260.485 167.261 260.523 167.507 260.523C167.692 260.523 167.843 260.513 167.962 260.494C168.08 260.471 168.175 260.452 168.246 260.438L168.587 261.943C168.473 261.986 168.314 262.028 168.111 262.071C167.907 262.118 167.649 262.142 167.337 262.142C166.863 262.142 166.399 262.04 165.945 261.837C165.495 261.633 165.121 261.323 164.822 260.906C164.529 260.49 164.382 259.964 164.382 259.33V248.477Z" fill="white"/>
<path d="M98.7614 223V208.455H103.676C104.813 208.455 105.745 208.649 106.474 209.037C107.204 209.42 107.743 209.948 108.094 210.621C108.444 211.293 108.619 212.058 108.619 212.915C108.619 213.772 108.444 214.532 108.094 215.195C107.743 215.857 107.206 216.378 106.482 216.757C105.757 217.131 104.831 217.318 103.705 217.318H99.7273V215.727H103.648C104.424 215.727 105.049 215.614 105.523 215.386C106.001 215.159 106.347 214.837 106.56 214.42C106.777 213.999 106.886 213.497 106.886 212.915C106.886 212.332 106.777 211.823 106.56 211.388C106.342 210.952 105.994 210.616 105.516 210.379C105.037 210.138 104.405 210.017 103.619 210.017H100.523V223H98.7614ZM105.608 216.466L109.188 223H107.142L103.619 216.466H105.608ZM115.784 223.227C114.733 223.227 113.826 222.995 113.064 222.531C112.306 222.062 111.721 221.409 111.309 220.571C110.902 219.728 110.699 218.748 110.699 217.631C110.699 216.513 110.902 215.528 111.309 214.676C111.721 213.819 112.294 213.152 113.028 212.673C113.767 212.19 114.628 211.949 115.613 211.949C116.181 211.949 116.743 212.044 117.297 212.233C117.85 212.422 118.355 212.73 118.809 213.156C119.264 213.578 119.626 214.136 119.896 214.832C120.166 215.528 120.301 216.385 120.301 217.403V218.114H111.892V216.665H118.596C118.596 216.049 118.473 215.5 118.227 215.017C117.985 214.534 117.64 214.153 117.19 213.874C116.745 213.594 116.219 213.455 115.613 213.455C114.946 213.455 114.368 213.62 113.88 213.952C113.397 214.278 113.026 214.705 112.765 215.23C112.505 215.756 112.375 216.319 112.375 216.92V217.886C112.375 218.71 112.517 219.409 112.801 219.982C113.09 220.55 113.49 220.983 114.001 221.281C114.512 221.575 115.107 221.722 115.784 221.722C116.224 221.722 116.622 221.66 116.977 221.537C117.337 221.409 117.647 221.22 117.907 220.969C118.168 220.713 118.369 220.396 118.511 220.017L120.13 220.472C119.96 221.021 119.673 221.504 119.271 221.92C118.868 222.332 118.371 222.654 117.779 222.886C117.188 223.114 116.522 223.227 115.784 223.227ZM126.061 223.256C125.369 223.256 124.742 223.125 124.179 222.865C123.615 222.6 123.168 222.219 122.836 221.722C122.505 221.22 122.339 220.614 122.339 219.903C122.339 219.278 122.462 218.772 122.708 218.384C122.955 217.991 123.284 217.683 123.696 217.46C124.108 217.238 124.562 217.072 125.059 216.963C125.561 216.849 126.065 216.759 126.572 216.693C127.235 216.608 127.772 216.544 128.184 216.501C128.601 216.454 128.904 216.376 129.093 216.267C129.288 216.158 129.385 215.969 129.385 215.699V215.642C129.385 214.941 129.193 214.397 128.809 214.009C128.431 213.62 127.855 213.426 127.083 213.426C126.283 213.426 125.656 213.601 125.201 213.952C124.747 214.302 124.427 214.676 124.243 215.074L122.652 214.506C122.936 213.843 123.315 213.327 123.788 212.957C124.266 212.583 124.787 212.323 125.35 212.176C125.919 212.025 126.477 211.949 127.027 211.949C127.377 211.949 127.779 211.991 128.234 212.077C128.693 212.157 129.136 212.325 129.562 212.581C129.993 212.837 130.35 213.223 130.635 213.739C130.919 214.255 131.061 214.946 131.061 215.812V223H129.385V221.523H129.299C129.186 221.759 128.996 222.013 128.731 222.283C128.466 222.553 128.113 222.782 127.673 222.972C127.233 223.161 126.695 223.256 126.061 223.256ZM126.316 221.75C126.979 221.75 127.538 221.62 127.993 221.359C128.452 221.099 128.797 220.763 129.029 220.351C129.266 219.939 129.385 219.506 129.385 219.051V217.517C129.314 217.602 129.157 217.68 128.916 217.751C128.679 217.818 128.404 217.877 128.092 217.929C127.784 217.976 127.484 218.019 127.19 218.057C126.901 218.09 126.667 218.118 126.487 218.142C126.051 218.199 125.644 218.291 125.265 218.419C124.891 218.542 124.588 218.729 124.356 218.98C124.129 219.226 124.015 219.562 124.015 219.989C124.015 220.571 124.231 221.011 124.662 221.31C125.097 221.603 125.649 221.75 126.316 221.75ZM138.552 223.227C137.529 223.227 136.648 222.986 135.91 222.503C135.171 222.02 134.603 221.355 134.205 220.507C133.808 219.66 133.609 218.691 133.609 217.602C133.609 216.494 133.812 215.517 134.219 214.669C134.631 213.817 135.204 213.152 135.938 212.673C136.677 212.19 137.539 211.949 138.523 211.949C139.29 211.949 139.982 212.091 140.597 212.375C141.213 212.659 141.717 213.057 142.11 213.568C142.503 214.08 142.747 214.676 142.842 215.358H141.165C141.038 214.861 140.754 214.42 140.313 214.037C139.878 213.649 139.29 213.455 138.552 213.455C137.898 213.455 137.326 213.625 136.833 213.966C136.345 214.302 135.964 214.778 135.69 215.393C135.42 216.004 135.285 216.722 135.285 217.545C135.285 218.388 135.417 219.122 135.683 219.747C135.952 220.372 136.331 220.857 136.819 221.203C137.311 221.549 137.889 221.722 138.552 221.722C138.987 221.722 139.383 221.646 139.738 221.494C140.093 221.343 140.394 221.125 140.64 220.841C140.886 220.557 141.061 220.216 141.165 219.818H142.842C142.747 220.462 142.513 221.042 142.138 221.558C141.769 222.07 141.279 222.477 140.668 222.78C140.062 223.078 139.357 223.227 138.552 223.227ZM150.036 212.091V213.511H144.383V212.091H150.036ZM146.031 209.477H147.707V219.875C147.707 220.348 147.775 220.704 147.913 220.94C148.055 221.172 148.235 221.329 148.452 221.409C148.675 221.485 148.909 221.523 149.156 221.523C149.34 221.523 149.492 221.513 149.61 221.494C149.728 221.471 149.823 221.452 149.894 221.438L150.235 222.943C150.121 222.986 149.963 223.028 149.759 223.071C149.556 223.118 149.298 223.142 148.985 223.142C148.512 223.142 148.048 223.04 147.593 222.837C147.143 222.633 146.769 222.323 146.471 221.906C146.177 221.49 146.031 220.964 146.031 220.33V209.477Z" fill="white"/>
</svg>
